<mxfile host="app.diagrams.net" modified="2023-06-26T15:22:13.683Z" agent="Mozilla/5.0 (X11; Linux x86_64) AppleWebKit/537.36 (KHTML, like Gecko) Chrome/114.0.0.0 Safari/537.36" etag="BRm6Ofvb58qyTJzw2UNe" version="21.5.0" type="device">
  <diagram name="Page-1" id="Vzr_e2T0n73WFeTbUS7m">
    <mxGraphModel dx="1092" dy="834" grid="1" gridSize="10" guides="1" tooltips="1" connect="1" arrows="1" fold="1" page="1" pageScale="1" pageWidth="850" pageHeight="1100" math="0" shadow="0">
      <root>
        <mxCell id="0" />
        <mxCell id="1" parent="0" />
      </root>
    </mxGraphModel>
  </diagram>
</mxfile>
